<svg width="1241" height="250" viewBox="0 0 1241 250" fill="none" xmlns="http://www.w3.org/2000/svg">
<path d="M0.344727 0.100098H71.0307V193.951H190.269V250H0.344727V0.100098Z" fill="#FAFAFA"/>
<path d="M418.874 195.379V250H218.24V0.100098H414.233V54.7211H288.212V96.8471H399.239V149.683H288.212V195.379H418.874Z" fill="#FAFAFA"/>
<path d="M625.533 201.448H519.861L500.226 250H428.112L538.425 0.100098H608.04L718.71 250H645.168L625.533 201.448ZM604.827 149.326L572.697 69.3581L540.567 149.326H604.827Z" fill="#FAFAFA"/>
<path d="M847.991 183.598H809.435V250H738.749V0.100098H852.989C875.599 0.100098 895.234 3.9081 911.894 11.5241C928.554 18.9021 941.406 29.6121 950.45 43.6541C959.494 57.4581 964.016 73.7611 964.016 92.5631C964.016 110.651 959.732 126.478 951.164 140.044C942.834 153.372 930.815 163.844 915.107 171.46L969.014 250H893.33L847.991 183.598ZM892.616 92.5631C892.616 80.9011 888.927 71.8571 881.549 65.4311C874.171 59.0051 863.223 55.7921 848.705 55.7921H809.435V128.977H848.705C863.223 128.977 874.171 125.883 881.549 119.695C888.927 113.269 892.616 104.225 892.616 92.5631Z" fill="#FAFAFA"/>
<path d="M1240.77 0.100098V250H1182.58L1072.27 116.839V250H1003.01V0.100098H1061.2L1171.52 133.261V0.100098H1240.77Z" fill="#FAFAFA"/>
</svg>
