<svg width="57" height="48" viewBox="0 0 57 48" fill="none" xmlns="http://www.w3.org/2000/svg">
<path d="M26.2425 0L36.7506 18.2005H15.7345L26.2425 0Z" fill="#FFC01D"/>
<path d="M11.6282 23.1975C12.425 22.0681 14.0998 22.0681 14.8966 23.1975L15.995 24.7543C16.4401 25.3851 17.2086 25.7035 17.9694 25.5721L19.8469 25.248C21.2089 25.0128 22.3932 26.1971 22.158 27.5591L21.8339 29.4366C21.7025 30.1974 22.0208 30.9659 22.6517 31.411L24.2085 32.5094C25.3379 33.3062 25.3379 34.981 24.2085 35.7778L22.6517 36.8762C22.0208 37.3213 21.7025 38.0898 21.8339 38.8506L22.158 40.7281C22.3932 42.0901 21.2089 43.2744 19.8469 43.0392L17.9694 42.7151C17.2086 42.5837 16.4401 42.9021 15.995 43.5329L14.8966 45.0898C14.0998 46.2191 12.425 46.2191 11.6282 45.0897L10.5298 43.5329C10.0847 42.9021 9.31618 42.5837 8.55533 42.7151L6.67783 43.0392C5.31585 43.2744 4.13159 42.0901 4.36673 40.7281L4.69088 38.8506C4.82223 38.0898 4.50391 37.3213 3.87303 36.8762L2.31623 35.7778C1.18689 34.981 1.18689 33.3062 2.31623 32.5094L3.87303 31.411C4.50391 30.9659 4.82223 30.1974 4.69087 29.4366L4.36673 27.5591C4.13159 26.1971 5.31585 25.0128 6.67783 25.248L8.55533 25.5721C9.31618 25.7035 10.0847 25.3851 10.5298 24.7543L11.6282 23.1975Z" fill="#00B586"/>
<rect x="30.4752" y="20.8812" width="26.5248" height="26.5248" fill="#6D77FB"/>
</svg>
