<svg width="34" height="34" viewBox="0 0 34 34" fill="none" xmlns="http://www.w3.org/2000/svg">
<rect width="34" height="34" rx="8" fill="#00B586" fill-opacity="0.1"/>
<path d="M21.1722 8.75343L19.0892 8.75C16.7491 8.75 15.2368 10.3438 15.2368 12.8107V14.6829H13.1425C12.9615 14.6829 12.815 14.8336 12.815 15.0195V17.7322C12.815 17.9181 12.9617 18.0686 13.1425 18.0686H15.2368V24.9136C15.2368 25.0995 15.3834 25.25 15.5644 25.25H18.2968C18.4778 25.25 18.6244 25.0993 18.6244 24.9136V18.0686H21.0731C21.2541 18.0686 21.4006 17.9181 21.4006 17.7322L21.4016 15.0195C21.4016 14.9303 21.367 14.8448 21.3057 14.7816C21.2444 14.7184 21.1608 14.6829 21.0739 14.6829H18.6244V13.0958C18.6244 12.333 18.8013 11.9457 19.7687 11.9457L21.1718 11.9452C21.3527 11.9452 21.4992 11.7945 21.4992 11.6087V9.08988C21.4992 8.90432 21.3528 8.75378 21.1722 8.75343Z" fill="white"/>
</svg>
