<svg width="428" height="231" viewBox="0 0 428 231" fill="none" xmlns="http://www.w3.org/2000/svg">
<g filter="url(#filter0_d)">
<path d="M83 55.3898C83 42.472 93.4371 32 106.312 32H371.484C384.359 32 394.796 42.472 394.796 55.3898V123.61C394.796 136.528 384.359 147 371.484 147H106.312C93.4371 147 83 136.528 83 123.61V55.3898Z" fill="white"/>
</g>
<path opacity="0.1" d="M171.275 89.4999C171.275 107.838 156.59 122.704 138.475 122.704C120.361 122.704 105.676 107.838 105.676 89.4999C105.676 71.1617 120.361 56.2957 138.475 56.2957C156.59 56.2957 171.275 71.1617 171.275 89.4999Z" fill="#FF8E01"/>
<path d="M185.042 79.5426V65.6024H193.849V67.6536H187.536V71.5568H192.641V73.5682H187.536V79.5426H185.042Z" fill="#333333"/>
<path d="M195.715 79.5426V65.2041H198.209V79.5426H195.715Z" fill="#333333"/>
<path d="M205.453 79.7816C204.479 79.7816 203.615 79.5691 202.862 79.1443C202.108 78.7195 201.517 78.122 201.088 77.352C200.66 76.582 200.446 75.6924 200.446 74.6834C200.446 73.6612 200.653 72.7517 201.069 71.9551C201.498 71.1586 202.082 70.5412 202.823 70.1031C203.576 69.6517 204.459 69.426 205.472 69.426C206.421 69.426 207.258 69.6384 207.986 70.0633C208.713 70.4881 209.278 71.0723 209.681 71.8157C210.096 72.5459 210.304 73.3624 210.304 74.2652C210.304 74.4113 210.298 74.5639 210.285 74.7233C210.285 74.8826 210.278 75.0485 210.265 75.2211H202.92C202.972 75.9912 203.232 76.5952 203.699 77.0334C204.18 77.4715 204.758 77.6905 205.433 77.6905C205.94 77.6905 206.362 77.5777 206.7 77.352C207.051 77.113 207.31 76.8077 207.479 76.4359H210.012C209.83 77.0599 209.525 77.6308 209.096 78.1486C208.681 78.6531 208.161 79.0514 207.538 79.3434C206.927 79.6355 206.232 79.7816 205.453 79.7816ZM205.472 71.4971C204.862 71.4971 204.323 71.6763 203.855 72.0348C203.388 72.38 203.089 72.911 202.959 73.628H207.771C207.732 72.9774 207.499 72.4596 207.07 72.0746C206.641 71.6896 206.109 71.4971 205.472 71.4971Z" fill="#333333"/>
<path d="M210.82 79.5426L214.327 74.6038L210.82 69.665H213.489L215.944 73.1699L218.38 69.665H221.069L217.542 74.6038L221.069 79.5426H218.38L215.944 76.0376L213.489 79.5426H210.82Z" fill="#333333"/>
<path d="M224.002 68.1315C223.547 68.1315 223.171 67.9921 222.872 67.7133C222.586 67.4345 222.443 67.0827 222.443 66.6579C222.443 66.233 222.586 65.8878 222.872 65.6223C223.171 65.3435 223.547 65.2041 224.002 65.2041C224.456 65.2041 224.827 65.3435 225.112 65.6223C225.411 65.8878 225.561 66.233 225.561 66.6579C225.561 67.0827 225.411 67.4345 225.112 67.7133C224.827 67.9921 224.456 68.1315 224.002 68.1315ZM222.755 79.5426V69.665H225.249V79.5426H222.755Z" fill="#333333"/>
<path d="M233.58 79.7816C232.853 79.7816 232.216 79.6422 231.671 79.3634C231.125 79.0846 230.684 78.6929 230.346 78.1884L230.073 79.5426H227.852V65.2041H230.346V71.0789C230.658 70.6408 231.067 70.2558 231.573 69.9239C232.093 69.5919 232.762 69.426 233.58 69.426C234.489 69.426 235.301 69.6517 236.016 70.1031C236.73 70.5545 237.295 71.1718 237.711 71.9551C238.126 72.7384 238.334 73.628 238.334 74.6237C238.334 75.6194 238.126 76.5089 237.711 77.2922C237.295 78.0623 236.73 78.673 236.016 79.1244C235.301 79.5625 234.489 79.7816 233.58 79.7816ZM233.054 77.5511C233.846 77.5511 234.502 77.279 235.022 76.7346C235.541 76.1903 235.801 75.4867 235.801 74.6237C235.801 73.7607 235.541 73.0504 235.022 72.4928C234.502 71.9352 233.846 71.6564 233.054 71.6564C232.249 71.6564 231.586 71.9352 231.067 72.4928C230.56 73.0372 230.307 73.7408 230.307 74.6038C230.307 75.4667 230.56 76.177 231.067 76.7346C231.586 77.279 232.249 77.5511 233.054 77.5511Z" fill="#333333"/>
<path d="M240.562 79.5426V65.2041H243.056V79.5426H240.562Z" fill="#333333"/>
<path d="M250.3 79.7816C249.326 79.7816 248.462 79.5691 247.708 79.1443C246.955 78.7195 246.364 78.122 245.935 77.352C245.507 76.582 245.292 75.6924 245.292 74.6834C245.292 73.6612 245.5 72.7517 245.916 71.9551C246.345 71.1586 246.929 70.5412 247.669 70.1031C248.423 69.6517 249.306 69.426 250.319 69.426C251.267 69.426 252.105 69.6384 252.833 70.0633C253.56 70.4881 254.125 71.0723 254.528 71.8157C254.943 72.5459 255.151 73.3624 255.151 74.2652C255.151 74.4113 255.145 74.5639 255.132 74.7233C255.132 74.8826 255.125 75.0485 255.112 75.2211H247.767C247.819 75.9912 248.079 76.5952 248.546 77.0334C249.027 77.4715 249.605 77.6905 250.28 77.6905C250.787 77.6905 251.209 77.5777 251.547 77.352C251.897 77.113 252.157 76.8077 252.326 76.4359H254.859C254.677 77.0599 254.372 77.6308 253.943 78.1486C253.528 78.6531 253.008 79.0514 252.385 79.3434C251.774 79.6355 251.079 79.7816 250.3 79.7816ZM250.319 71.4971C249.709 71.4971 249.17 71.6763 248.702 72.0348C248.234 72.38 247.936 72.911 247.806 73.628H252.618C252.579 72.9774 252.346 72.4596 251.917 72.0746C251.488 71.6896 250.956 71.4971 250.319 71.4971Z" fill="#333333"/>
<path d="M266.626 79.7816C265.639 79.7816 264.768 79.5625 264.015 79.1244C263.262 78.6863 262.664 78.0756 262.223 77.2922C261.794 76.5089 261.58 75.6128 261.58 74.6038C261.58 73.5948 261.794 72.6986 262.223 71.9153C262.664 71.132 263.262 70.5213 264.015 70.0832C264.768 69.6451 265.639 69.426 266.626 69.426C267.86 69.426 268.899 69.7579 269.743 70.4217C270.588 71.0723 271.127 71.9751 271.36 73.1301H268.73C268.6 72.6522 268.34 72.2804 267.951 72.0149C267.574 71.7361 267.126 71.5967 266.606 71.5967C265.918 71.5967 265.333 71.8622 264.853 72.3933C264.372 72.9243 264.132 73.6612 264.132 74.6038C264.132 75.5464 264.372 76.2832 264.853 76.8143C265.333 77.3454 265.918 77.6109 266.606 77.6109C267.126 77.6109 267.574 77.4781 267.951 77.2126C268.34 76.9471 268.6 76.5687 268.73 76.0775H271.36C271.127 77.1927 270.588 78.0888 269.743 78.7659C268.899 79.443 267.86 79.7816 266.626 79.7816Z" fill="#333333"/>
<path d="M273.574 79.5426V65.2041H276.068V79.5426H273.574Z" fill="#333333"/>
<path d="M281.948 79.7816C281.117 79.7816 280.435 79.6488 279.902 79.3833C279.37 79.1045 278.973 78.7394 278.714 78.288C278.454 77.8366 278.324 77.3387 278.324 76.7944C278.324 75.8783 278.675 75.1348 279.376 74.5639C280.077 73.9931 281.13 73.7076 282.532 73.7076H284.987V73.4686C284.987 72.7916 284.799 72.2937 284.422 71.9751C284.046 71.6564 283.578 71.4971 283.02 71.4971C282.513 71.4971 282.071 71.6232 281.695 71.8755C281.318 72.1145 281.084 72.4729 280.993 72.9509H278.558C278.623 72.2339 278.856 71.61 279.259 71.0789C279.675 70.5478 280.207 70.1429 280.857 69.8641C281.506 69.572 282.234 69.426 283.039 69.426C284.416 69.426 285.5 69.7778 286.293 70.4815C287.085 71.1851 287.481 72.1808 287.481 73.4686V79.5426H285.358L285.124 77.9494C284.838 78.4805 284.435 78.9186 283.916 79.2638C283.409 79.609 282.753 79.7816 281.948 79.7816ZM282.513 77.7901C283.227 77.7901 283.779 77.5511 284.169 77.0732C284.572 76.5952 284.825 76.0044 284.929 75.3008H282.805C282.143 75.3008 281.669 75.4269 281.383 75.6792C281.097 75.9181 280.954 76.2169 280.954 76.5753C280.954 76.9603 281.097 77.2591 281.383 77.4715C281.669 77.6839 282.045 77.7901 282.513 77.7901Z" fill="#333333"/>
<path d="M293.855 79.7816C292.998 79.7816 292.245 79.6422 291.595 79.3634C290.946 79.0713 290.426 78.673 290.037 78.1685C289.647 77.664 289.413 77.0798 289.335 76.416H291.849C291.926 76.801 292.134 77.1329 292.472 77.4117C292.823 77.6773 293.271 77.81 293.816 77.81C294.362 77.81 294.758 77.6972 295.005 77.4715C295.265 77.2458 295.395 76.9869 295.395 76.6948C295.395 76.27 295.213 75.9845 294.849 75.8385C294.485 75.6792 293.979 75.5265 293.329 75.3804C292.914 75.2875 292.492 75.1747 292.063 75.0419C291.634 74.9091 291.238 74.7432 290.874 74.544C290.524 74.3316 290.238 74.0661 290.017 73.7475C289.796 73.4155 289.686 73.0106 289.686 72.5327C289.686 71.6564 290.024 70.9196 290.699 70.3221C291.387 69.7247 292.349 69.426 293.583 69.426C294.726 69.426 295.635 69.6982 296.31 70.2425C296.999 70.7868 297.408 71.5369 297.538 72.4928H295.18C295.037 71.7626 294.498 71.3975 293.563 71.3975C293.096 71.3975 292.732 71.4905 292.472 71.6763C292.225 71.8622 292.102 72.0945 292.102 72.3733C292.102 72.6654 292.29 72.8978 292.667 73.0704C293.044 73.243 293.544 73.4023 294.167 73.5483C294.843 73.7076 295.46 73.8869 296.018 74.086C296.59 74.2719 297.044 74.5573 297.382 74.9423C297.72 75.3141 297.889 75.8518 297.889 76.5554C297.902 77.1661 297.746 77.7171 297.421 78.2083C297.096 78.6995 296.629 79.0846 296.018 79.3634C295.408 79.6422 294.687 79.7816 293.855 79.7816Z" fill="#333333"/>
<path d="M304.092 79.7816C303.235 79.7816 302.481 79.6422 301.832 79.3634C301.182 79.0713 300.663 78.673 300.273 78.1685C299.883 77.664 299.65 77.0798 299.572 76.416H302.085C302.163 76.801 302.371 77.1329 302.709 77.4117C303.059 77.6773 303.507 77.81 304.053 77.81C304.599 77.81 304.995 77.6972 305.242 77.4715C305.501 77.2458 305.631 76.9869 305.631 76.6948C305.631 76.27 305.449 75.9845 305.086 75.8385C304.722 75.6792 304.215 75.5265 303.566 75.3804C303.15 75.2875 302.728 75.1747 302.299 75.0419C301.871 74.9091 301.475 74.7432 301.111 74.544C300.76 74.3316 300.474 74.0661 300.254 73.7475C300.033 73.4155 299.922 73.0106 299.922 72.5327C299.922 71.6564 300.26 70.9196 300.936 70.3221C301.624 69.7247 302.585 69.426 303.819 69.426C304.962 69.426 305.871 69.6982 306.547 70.2425C307.235 70.7868 307.645 71.5369 307.774 72.4928H305.417C305.274 71.7626 304.735 71.3975 303.8 71.3975C303.332 71.3975 302.968 71.4905 302.709 71.6763C302.462 71.8622 302.338 72.0945 302.338 72.3733C302.338 72.6654 302.527 72.8978 302.903 73.0704C303.28 73.243 303.78 73.4023 304.404 73.5483C305.079 73.7076 305.696 73.8869 306.255 74.086C306.826 74.2719 307.281 74.5573 307.619 74.9423C307.956 75.3141 308.125 75.8518 308.125 76.5554C308.138 77.1661 307.982 77.7171 307.657 78.2083C307.333 78.6995 306.865 79.0846 306.255 79.3634C305.644 79.6422 304.923 79.7816 304.092 79.7816Z" fill="#333333"/>
<path d="M315.03 79.7816C314.056 79.7816 313.192 79.5691 312.439 79.1443C311.685 78.7195 311.094 78.122 310.666 77.352C310.237 76.582 310.023 75.6924 310.023 74.6834C310.023 73.6612 310.23 72.7517 310.646 71.9551C311.075 71.1586 311.659 70.5412 312.4 70.1031C313.153 69.6517 314.036 69.426 315.049 69.426C315.998 69.426 316.835 69.6384 317.563 70.0633C318.29 70.4881 318.855 71.0723 319.258 71.8157C319.674 72.5459 319.881 73.3624 319.881 74.2652C319.881 74.4113 319.875 74.5639 319.862 74.7233C319.862 74.8826 319.855 75.0485 319.842 75.2211H312.497C312.549 75.9912 312.809 76.5952 313.276 77.0334C313.757 77.4715 314.335 77.6905 315.01 77.6905C315.517 77.6905 315.939 77.5777 316.277 77.352C316.628 77.113 316.887 76.8077 317.056 76.4359H319.589C319.407 77.0599 319.102 77.6308 318.673 78.1486C318.258 78.6531 317.738 79.0514 317.115 79.3434C316.504 79.6355 315.809 79.7816 315.03 79.7816ZM315.049 71.4971C314.439 71.4971 313.9 71.6763 313.432 72.0348C312.965 72.38 312.666 72.911 312.536 73.628H317.349C317.31 72.9774 317.076 72.4596 316.647 72.0746C316.218 71.6896 315.686 71.4971 315.049 71.4971Z" fill="#333333"/>
<path d="M325.973 79.7816C325.116 79.7816 324.362 79.6422 323.713 79.3634C323.064 79.0713 322.544 78.673 322.154 78.1685C321.765 77.664 321.531 77.0798 321.453 76.416H323.966C324.044 76.801 324.252 77.1329 324.59 77.4117C324.941 77.6773 325.389 77.81 325.934 77.81C326.48 77.81 326.876 77.6972 327.123 77.4715C327.382 77.2458 327.512 76.9869 327.512 76.6948C327.512 76.27 327.331 75.9845 326.967 75.8385C326.603 75.6792 326.097 75.5265 325.447 75.3804C325.031 75.2875 324.609 75.1747 324.181 75.0419C323.752 74.9091 323.356 74.7432 322.992 74.544C322.641 74.3316 322.356 74.0661 322.135 73.7475C321.914 73.4155 321.804 73.0106 321.804 72.5327C321.804 71.6564 322.141 70.9196 322.817 70.3221C323.505 69.7247 324.466 69.426 325.7 69.426C326.843 69.426 327.753 69.6982 328.428 70.2425C329.117 70.7868 329.526 71.5369 329.656 72.4928H327.298C327.155 71.7626 326.616 71.3975 325.681 71.3975C325.213 71.3975 324.85 71.4905 324.59 71.6763C324.343 71.8622 324.22 72.0945 324.22 72.3733C324.22 72.6654 324.408 72.8978 324.785 73.0704C325.161 73.243 325.661 73.4023 326.285 73.5483C326.96 73.7076 327.577 73.8869 328.136 74.086C328.707 74.2719 329.162 74.5573 329.5 74.9423C329.837 75.3141 330.006 75.8518 330.006 76.5554C330.019 77.1661 329.863 77.7171 329.539 78.2083C329.214 78.6995 328.746 79.0846 328.136 79.3634C327.525 79.6422 326.804 79.7816 325.973 79.7816Z" fill="#333333"/>
<path d="M187.778 107.144V103.019L184.232 96.2889H185.71L188.432 101.779L191.153 96.2889H192.615L189.085 103.019V107.144H187.778Z" fill="#575958"/>
<path d="M196.164 107.331C195.439 107.331 194.785 107.165 194.205 106.834C193.624 106.503 193.163 106.038 192.821 105.439C192.489 104.829 192.323 104.115 192.323 103.299C192.323 102.482 192.494 101.774 192.836 101.174C193.178 100.564 193.64 100.094 194.22 99.7627C194.811 99.4319 195.47 99.2664 196.196 99.2664C196.921 99.2664 197.575 99.4319 198.155 99.7627C198.736 100.094 199.192 100.564 199.524 101.174C199.866 101.774 200.037 102.482 200.037 103.299C200.037 104.115 199.866 104.829 199.524 105.439C199.182 106.038 198.715 106.503 198.124 106.834C197.543 107.165 196.89 107.331 196.164 107.331ZM196.164 106.214C196.61 106.214 197.025 106.105 197.409 105.888C197.792 105.671 198.103 105.346 198.342 104.911C198.58 104.477 198.7 103.94 198.7 103.299C198.7 102.658 198.58 102.12 198.342 101.686C198.114 101.251 197.808 100.926 197.424 100.709C197.041 100.492 196.631 100.383 196.196 100.383C195.75 100.383 195.335 100.492 194.951 100.709C194.568 100.926 194.257 101.251 194.018 101.686C193.78 102.12 193.66 102.658 193.66 103.299C193.66 103.94 193.78 104.477 194.018 104.911C194.257 105.346 194.562 105.671 194.936 105.888C195.319 106.105 195.729 106.214 196.164 106.214Z" fill="#575958"/>
<path d="M204.669 107.331C203.756 107.331 203.03 107.057 202.491 106.509C201.952 105.95 201.683 105.097 201.683 103.95V99.4525H202.989V103.81C202.989 105.413 203.647 106.214 204.964 106.214C205.638 106.214 206.193 105.976 206.628 105.501C207.074 105.015 207.297 104.327 207.297 103.438V99.4525H208.604V107.144H207.422L207.328 105.764C207.09 106.25 206.732 106.633 206.255 106.912C205.788 107.191 205.26 107.331 204.669 107.331Z" fill="#575958"/>
<path d="M214.87 110.556V99.4525H216.052L216.176 100.724C216.425 100.352 216.778 100.016 217.234 99.7162C217.701 99.4164 218.292 99.2664 219.007 99.2664C219.774 99.2664 220.443 99.4422 221.013 99.7937C221.584 100.145 222.024 100.626 222.335 101.236C222.657 101.846 222.818 102.539 222.818 103.314C222.818 104.089 222.657 104.782 222.335 105.392C222.024 105.992 221.579 106.467 220.998 106.819C220.428 107.16 219.759 107.331 218.992 107.331C218.359 107.331 217.794 107.201 217.296 106.943C216.809 106.684 216.436 106.323 216.176 105.857V110.556H214.87ZM218.852 106.198C219.37 106.198 219.826 106.08 220.22 105.842C220.614 105.594 220.925 105.253 221.153 104.818C221.382 104.384 221.496 103.877 221.496 103.299C221.496 102.72 221.382 102.213 221.153 101.779C220.925 101.345 220.614 101.009 220.22 100.771C219.826 100.523 219.37 100.399 218.852 100.399C218.333 100.399 217.877 100.523 217.483 100.771C217.089 101.009 216.778 101.345 216.55 101.779C216.322 102.213 216.208 102.72 216.208 103.299C216.208 103.877 216.322 104.384 216.55 104.818C216.778 105.253 217.089 105.594 217.483 105.842C217.877 106.08 218.333 106.198 218.852 106.198Z" fill="#575958"/>
<path d="M225.429 97.7467C225.17 97.7467 224.952 97.664 224.776 97.4985C224.61 97.3228 224.527 97.1057 224.527 96.8472C224.527 96.5991 224.61 96.3923 224.776 96.2269C224.952 96.0615 225.17 95.9788 225.429 95.9788C225.678 95.9788 225.891 96.0615 226.067 96.2269C226.243 96.3923 226.331 96.5991 226.331 96.8472C226.331 97.1057 226.243 97.3228 226.067 97.4985C225.891 97.664 225.678 97.7467 225.429 97.7467ZM224.776 107.144V99.4525H226.083V107.144H224.776Z" fill="#575958"/>
<path d="M231.903 107.331C231.167 107.331 230.504 107.165 229.913 106.834C229.332 106.493 228.871 106.023 228.528 105.423C228.197 104.813 228.031 104.105 228.031 103.299C228.031 102.492 228.197 101.789 228.528 101.189C228.871 100.579 229.332 100.109 229.913 99.7782C230.504 99.437 231.167 99.2664 231.903 99.2664C232.816 99.2664 233.583 99.5042 234.205 99.9798C234.838 100.455 235.237 101.091 235.403 101.887H234.065C233.962 101.412 233.708 101.045 233.303 100.786C232.899 100.517 232.427 100.383 231.888 100.383C231.452 100.383 231.043 100.492 230.659 100.709C230.275 100.926 229.964 101.251 229.726 101.686C229.487 102.12 229.368 102.658 229.368 103.299C229.368 103.94 229.487 104.477 229.726 104.911C229.964 105.346 230.275 105.676 230.659 105.904C231.043 106.121 231.452 106.23 231.888 106.23C232.427 106.23 232.899 106.1 233.303 105.842C233.708 105.573 233.962 105.196 234.065 104.71H235.403C235.247 105.485 234.853 106.116 234.221 106.602C233.588 107.088 232.816 107.331 231.903 107.331Z" fill="#575958"/>
<path d="M237.227 107.144V95.9788H238.534V102.694L241.691 99.4525H243.293L239.871 102.926L243.728 107.144H242.064L238.534 103.159V107.144H237.227Z" fill="#575958"/>
<path d="M252.229 107.144C251.524 107.144 250.969 106.974 250.565 106.633C250.16 106.292 249.958 105.676 249.958 104.787V100.554H248.621V99.4525H249.958L250.129 97.6071H251.265V99.4525H253.535V100.554H251.265V104.787C251.265 105.273 251.363 105.604 251.56 105.78C251.757 105.945 252.104 106.028 252.602 106.028H253.411V107.144H252.229Z" fill="#575958"/>
<path d="M255.195 107.144V95.9788H256.502V100.771C256.761 100.295 257.129 99.9281 257.606 99.6697C258.083 99.4008 258.601 99.2664 259.161 99.2664C260.053 99.2664 260.768 99.5456 261.307 100.104C261.847 100.652 262.116 101.5 262.116 102.647V107.144H260.825V102.787C260.825 101.184 260.177 100.383 258.881 100.383C258.207 100.383 257.642 100.626 257.186 101.112C256.73 101.587 256.502 102.27 256.502 103.159V107.144H255.195Z" fill="#575958"/>
<path d="M267.564 107.331C266.828 107.331 266.174 107.165 265.604 106.834C265.034 106.493 264.583 106.023 264.251 105.423C263.93 104.823 263.769 104.115 263.769 103.299C263.769 102.492 263.93 101.789 264.251 101.189C264.572 100.579 265.018 100.109 265.589 99.7782C266.169 99.437 266.838 99.2664 267.595 99.2664C268.341 99.2664 268.984 99.437 269.523 99.7782C270.073 100.109 270.493 100.548 270.783 101.096C271.074 101.644 271.219 102.234 271.219 102.864C271.219 102.978 271.214 103.092 271.203 103.205C271.203 103.319 271.203 103.448 271.203 103.593H265.06C265.091 104.182 265.226 104.674 265.464 105.066C265.713 105.449 266.019 105.738 266.382 105.935C266.755 106.131 267.149 106.23 267.564 106.23C268.103 106.23 268.554 106.105 268.917 105.857C269.28 105.609 269.544 105.273 269.71 104.849H271.001C270.794 105.563 270.394 106.157 269.803 106.633C269.223 107.098 268.476 107.331 267.564 107.331ZM267.564 100.368C266.942 100.368 266.387 100.559 265.9 100.941C265.423 101.313 265.148 101.861 265.075 102.585H269.928C269.897 101.892 269.658 101.35 269.212 100.957C268.767 100.564 268.217 100.368 267.564 100.368Z" fill="#575958"/>
<path d="M280.021 107.331C279.099 107.331 278.331 107.098 277.72 106.633C277.108 106.167 276.75 105.537 276.646 104.741H277.984C278.067 105.144 278.28 105.495 278.622 105.795C278.974 106.085 279.446 106.23 280.037 106.23C280.587 106.23 280.991 106.116 281.25 105.888C281.509 105.651 281.639 105.371 281.639 105.051C281.639 104.586 281.468 104.276 281.126 104.12C280.794 103.965 280.322 103.826 279.71 103.702C279.296 103.619 278.881 103.5 278.466 103.345C278.051 103.19 277.704 102.973 277.424 102.694C277.144 102.404 277.004 102.027 277.004 101.562C277.004 100.89 277.253 100.342 277.751 99.9178C278.259 99.4836 278.943 99.2664 279.804 99.2664C280.623 99.2664 281.292 99.4732 281.81 99.8868C282.339 100.29 282.645 100.869 282.728 101.624H281.437C281.385 101.231 281.214 100.926 280.924 100.709C280.644 100.481 280.265 100.368 279.788 100.368C279.322 100.368 278.959 100.466 278.699 100.662C278.451 100.859 278.326 101.117 278.326 101.438C278.326 101.748 278.487 101.991 278.808 102.166C279.14 102.342 279.586 102.492 280.146 102.616C280.623 102.72 281.074 102.849 281.499 103.004C281.934 103.149 282.287 103.371 282.557 103.671C282.837 103.96 282.976 104.384 282.976 104.942C282.987 105.635 282.722 106.209 282.183 106.664C281.655 107.108 280.934 107.331 280.021 107.331Z" fill="#575958"/>
<path d="M288.389 107.331C287.653 107.331 286.989 107.165 286.398 106.834C285.817 106.493 285.356 106.023 285.014 105.423C284.682 104.813 284.516 104.105 284.516 103.299C284.516 102.492 284.682 101.789 285.014 101.189C285.356 100.579 285.817 100.109 286.398 99.7782C286.989 99.437 287.653 99.2664 288.389 99.2664C289.301 99.2664 290.069 99.5042 290.691 99.9798C291.323 100.455 291.722 101.091 291.888 101.887H290.551C290.447 101.412 290.193 101.045 289.789 100.786C289.384 100.517 288.913 100.383 288.373 100.383C287.938 100.383 287.528 100.492 287.145 100.709C286.761 100.926 286.45 101.251 286.212 101.686C285.973 102.12 285.854 102.658 285.854 103.299C285.854 103.94 285.973 104.477 286.212 104.911C286.45 105.346 286.761 105.676 287.145 105.904C287.528 106.121 287.938 106.23 288.373 106.23C288.913 106.23 289.384 106.1 289.789 105.842C290.193 105.573 290.447 105.196 290.551 104.71H291.888C291.733 105.485 291.339 106.116 290.706 106.602C290.074 107.088 289.301 107.331 288.389 107.331Z" fill="#575958"/>
<path d="M293.713 107.144V95.9788H295.019V100.771C295.279 100.295 295.647 99.9281 296.124 99.6697C296.601 99.4008 297.119 99.2664 297.679 99.2664C298.571 99.2664 299.286 99.5456 299.825 100.104C300.364 100.652 300.634 101.5 300.634 102.647V107.144H299.343V102.787C299.343 101.184 298.695 100.383 297.399 100.383C296.725 100.383 296.16 100.626 295.704 101.112C295.247 101.587 295.019 102.27 295.019 103.159V107.144H293.713Z" fill="#575958"/>
<path d="M306.082 107.331C305.345 107.331 304.692 107.165 304.122 106.834C303.552 106.493 303.101 106.023 302.769 105.423C302.447 104.823 302.287 104.115 302.287 103.299C302.287 102.492 302.447 101.789 302.769 101.189C303.09 100.579 303.536 100.109 304.106 99.7782C304.687 99.437 305.356 99.2664 306.113 99.2664C306.859 99.2664 307.502 99.437 308.041 99.7782C308.591 100.109 309.011 100.548 309.301 101.096C309.591 101.644 309.736 102.234 309.736 102.864C309.736 102.978 309.731 103.092 309.721 103.205C309.721 103.319 309.721 103.448 309.721 103.593H303.578C303.609 104.182 303.743 104.674 303.982 105.066C304.231 105.449 304.537 105.738 304.9 105.935C305.273 106.131 305.667 106.23 306.082 106.23C306.621 106.23 307.072 106.105 307.435 105.857C307.798 105.609 308.062 105.273 308.228 104.849H309.519C309.311 105.563 308.912 106.157 308.321 106.633C307.741 107.098 306.994 107.331 306.082 107.331ZM306.082 100.368C305.459 100.368 304.905 100.559 304.417 100.941C303.94 101.313 303.666 101.861 303.593 102.585H308.446C308.414 101.892 308.176 101.35 307.73 100.957C307.284 100.564 306.735 100.368 306.082 100.368Z" fill="#575958"/>
<path d="M314.967 107.331C314.2 107.331 313.526 107.155 312.946 106.803C312.375 106.452 311.929 105.971 311.608 105.361C311.297 104.751 311.141 104.058 311.141 103.283C311.141 102.508 311.302 101.82 311.624 101.22C311.945 100.61 312.391 100.135 312.961 99.7937C313.531 99.4422 314.205 99.2664 314.983 99.2664C315.615 99.2664 316.175 99.3957 316.663 99.6541C317.15 99.9126 317.528 100.274 317.798 100.74V95.9788H319.105V107.144H317.923L317.798 105.873C317.549 106.245 317.191 106.581 316.725 106.881C316.258 107.181 315.673 107.331 314.967 107.331ZM315.107 106.198C315.626 106.198 316.082 106.08 316.476 105.842C316.88 105.594 317.192 105.253 317.409 104.818C317.637 104.384 317.751 103.877 317.751 103.299C317.751 102.72 317.637 102.213 317.409 101.779C317.192 101.345 316.88 101.009 316.476 100.771C316.082 100.523 315.626 100.399 315.107 100.399C314.599 100.399 314.143 100.523 313.739 100.771C313.345 101.009 313.034 101.345 312.806 101.779C312.588 102.213 312.479 102.72 312.479 103.299C312.479 103.877 312.588 104.384 312.806 104.818C313.034 105.253 313.345 105.594 313.739 105.842C314.143 106.08 314.599 106.198 315.107 106.198Z" fill="#575958"/>
<path d="M324.049 107.331C323.137 107.331 322.411 107.057 321.872 106.509C321.333 105.95 321.063 105.097 321.063 103.95V99.4525H322.37V103.81C322.37 105.413 323.028 106.214 324.345 106.214C325.019 106.214 325.573 105.976 326.009 105.501C326.455 105.015 326.678 104.327 326.678 103.438V99.4525H327.984V107.144H326.802L326.709 105.764C326.47 106.25 326.113 106.633 325.636 106.912C325.169 107.191 324.64 107.331 324.049 107.331Z" fill="#575958"/>
<path d="M330.135 107.144V95.9788H331.441V107.144H330.135Z" fill="#575958"/>
<path d="M337.051 107.331C336.314 107.331 335.661 107.165 335.091 106.834C334.521 106.493 334.07 106.023 333.738 105.423C333.416 104.823 333.256 104.115 333.256 103.299C333.256 102.492 333.416 101.789 333.738 101.189C334.059 100.579 334.505 100.109 335.075 99.7782C335.656 99.437 336.325 99.2664 337.082 99.2664C337.828 99.2664 338.471 99.437 339.01 99.7782C339.56 100.109 339.98 100.548 340.27 101.096C340.56 101.644 340.706 102.234 340.706 102.864C340.706 102.978 340.7 103.092 340.69 103.205C340.69 103.319 340.69 103.448 340.69 103.593H334.547C334.578 104.182 334.712 104.674 334.951 105.066C335.2 105.449 335.506 105.738 335.869 105.935C336.242 106.131 336.636 106.23 337.051 106.23C337.59 106.23 338.041 106.105 338.404 105.857C338.767 105.609 339.031 105.273 339.197 104.849H340.488C340.28 105.563 339.881 106.157 339.29 106.633C338.71 107.098 337.963 107.331 337.051 107.331ZM337.051 100.368C336.428 100.368 335.874 100.559 335.386 100.941C334.91 101.313 334.635 101.861 334.562 102.585H339.415C339.384 101.892 339.145 101.35 338.699 100.957C338.253 100.564 337.704 100.368 337.051 100.368Z" fill="#575958"/>
<path d="M342.888 107.222C342.629 107.222 342.411 107.139 342.235 106.974C342.069 106.798 341.986 106.586 341.986 106.338C341.986 106.09 342.069 105.883 342.235 105.718C342.411 105.542 342.629 105.454 342.888 105.454C343.137 105.454 343.344 105.542 343.51 105.718C343.687 105.883 343.775 106.09 343.775 106.338C343.775 106.586 343.687 106.798 343.51 106.974C343.344 107.139 343.137 107.222 342.888 107.222Z" fill="#575958"/>
<path d="M138.07 69.2534L147.789 85.4506H128.352L138.07 69.2534Z" fill="#FF8E01"/>
<path d="M151.028 94.7641C151.028 97.6714 148.671 100.028 145.764 100.028C142.857 100.028 140.5 97.6714 140.5 94.7641C140.5 91.8568 142.857 89.5 145.764 89.5C148.671 89.5 151.028 91.8568 151.028 94.7641Z" fill="#FF8E01"/>
<path d="M125.923 89.5H136.451V100.028H125.923V89.5Z" fill="#FF8E01"/>
<defs>
<filter id="filter0_d" x="0" y="0" width="427.796" height="231" filterUnits="userSpaceOnUse" color-interpolation-filters="sRGB">
<feFlood flood-opacity="0" result="BackgroundImageFix"/>
<feColorMatrix in="SourceAlpha" type="matrix" values="0 0 0 0 0 0 0 0 0 0 0 0 0 0 0 0 0 0 127 0"/>
<feOffset dx="-25" dy="26"/>
<feGaussianBlur stdDeviation="29"/>
<feColorMatrix type="matrix" values="0 0 0 0 1 0 0 0 0 0.556863 0 0 0 0 0.00392157 0 0 0 0.12 0"/>
<feBlend mode="normal" in2="BackgroundImageFix" result="effect1_dropShadow"/>
<feBlend mode="normal" in="SourceGraphic" in2="effect1_dropShadow" result="shape"/>
</filter>
</defs>
</svg>
