<svg width="34" height="34" viewBox="0 0 34 34" fill="none" xmlns="http://www.w3.org/2000/svg">
<rect width="34" height="34" rx="8" fill="#00B586" fill-opacity="0.1"/>
<path fill-rule="evenodd" clip-rule="evenodd" d="M9.5 17C9.5 15.1395 9.5 14.2092 9.72279 13.4505C10.2501 11.6546 11.6546 10.2501 13.4505 9.72279C14.2092 9.5 15.1395 9.5 17 9.5C18.8605 9.5 19.7908 9.5 20.5495 9.72279C22.3454 10.2501 23.7499 11.6546 24.2772 13.4505C24.5 14.2092 24.5 15.1395 24.5 17C24.5 18.8605 24.5 19.7908 24.2772 20.5495C23.7499 22.3454 22.3454 23.7499 20.5495 24.2772C19.7908 24.5 18.8605 24.5 17 24.5C15.1395 24.5 14.2092 24.5 13.4505 24.2772C11.6546 23.7499 10.2501 22.3454 9.72279 20.5495C9.5 19.7908 9.5 18.8605 9.5 17ZM17 13.0294C14.8072 13.0294 13.0294 14.8073 13.0294 17C13.0294 19.1928 14.8072 20.9706 17 20.9706C19.1928 20.9706 20.9706 19.1928 20.9706 17C20.9706 14.8073 19.1928 13.0294 17 13.0294ZM17 19.4816C15.6321 19.4816 14.5184 18.3679 14.5184 17C14.5184 15.6312 15.6321 14.5184 17 14.5184C18.3679 14.5184 19.4816 15.6312 19.4816 17C19.4816 18.3679 18.3679 19.4816 17 19.4816ZM21.7975 12.7316C21.7975 13.0238 21.5606 13.2607 21.2684 13.2607C20.9762 13.2607 20.7393 13.0238 20.7393 12.7316C20.7393 12.4394 20.9762 12.2025 21.2684 12.2025C21.5606 12.2025 21.7975 12.4394 21.7975 12.7316Z" fill="white"/>
</svg>
