<svg width="34" height="34" viewBox="0 0 34 34" fill="none" xmlns="http://www.w3.org/2000/svg">
<rect width="34" height="34" rx="8" fill="#00B586" fill-opacity="0.1"/>
<path d="M24.4963 24.4999V24.4993H24.5V18.998C24.5 16.3068 23.9206 14.2336 20.7744 14.2336C19.2619 14.2336 18.2469 15.0636 17.8325 15.8505H17.7887V14.4849H14.8056V24.4993H17.9119V19.5405C17.9119 18.2349 18.1594 16.9724 19.7763 16.9724C21.3694 16.9724 21.3931 18.4624 21.3931 19.6243V24.4999H24.4963Z" fill="white"/>
<path d="M9.7475 14.4856H12.8575V24.5H9.7475V14.4856Z" fill="white"/>
<path d="M11.3012 9.5C10.3069 9.5 9.5 10.3069 9.5 11.3013C9.5 12.2956 10.3069 13.1194 11.3012 13.1194C12.2956 13.1194 13.1025 12.2956 13.1025 11.3013C13.1019 10.3069 12.295 9.5 11.3012 9.5V9.5Z" fill="white"/>
</svg>
