<svg width="17" height="12" viewBox="0 0 17 12" fill="none" xmlns="http://www.w3.org/2000/svg">
<path fill-rule="evenodd" clip-rule="evenodd" d="M16 0H15C14.448 0 14 0.482543 14 1.07759V10.4167C14 11.0119 14.448 11.4943 15 11.4943H16C16.552 11.4943 17 11.0119 17 10.4167V1.07759C17 0.482543 16.552 0 16 0ZM10.333 2.51444H11.333C11.886 2.51444 12.333 2.99687 12.333 3.59203V10.4167C12.333 11.0119 11.886 11.4943 11.333 11.4943H10.333C9.78101 11.4943 9.33301 11.0119 9.33301 10.4167V3.59203C9.33301 2.99687 9.78101 2.51444 10.333 2.51444ZM6.66699 5.02877H5.66699C5.11399 5.02877 4.66699 5.51121 4.66699 6.10636V10.4167C4.66699 11.0119 5.11399 11.4943 5.66699 11.4943H6.66699C7.21899 11.4943 7.66699 11.0119 7.66699 10.4167V6.10636C7.66699 5.51121 7.21899 5.02877 6.66699 5.02877ZM2 7.18394H1C0.448 7.18394 0 7.66638 0 8.26153V10.4167C0 11.0119 0.448 11.4943 1 11.4943H2C2.552 11.4943 3 11.0119 3 10.4167V8.26153C3 7.66638 2.552 7.18394 2 7.18394Z" fill="#00B586"/>
</svg>
