<svg width="15" height="15" viewBox="0 0 15 15" fill="currentColor" xmlns="http://www.w3.org/2000/svg">
<path d="M11.6919 9.14301C11.5084 9.3208 11.4241 9.57792 11.4659 9.83009L12.0956 13.3151C12.1488 13.6105 12.0241 13.9094 11.7769 14.0801C11.5346 14.2572 11.2123 14.2784 10.9481 14.1368L7.81093 12.5005C7.70184 12.4424 7.58072 12.4113 7.45676 12.4077H7.2648C7.19822 12.4176 7.13305 12.4389 7.07355 12.4715L3.93564 14.1155C3.78051 14.1934 3.60484 14.2211 3.43272 14.1934C3.01339 14.1141 2.73359 13.7146 2.8023 13.2931L3.43272 9.80813C3.47451 9.55384 3.39022 9.2953 3.20676 9.11467L0.648969 6.63551C0.435053 6.42797 0.360678 6.1163 0.458428 5.83509C0.553344 5.55459 0.795594 5.34988 1.08814 5.30384L4.60855 4.79313C4.8763 4.76551 5.11147 4.60259 5.23189 4.36176L6.78314 1.18134C6.81997 1.11051 6.86743 1.04534 6.9248 0.990091L6.98855 0.940508C7.02184 0.903674 7.06009 0.873216 7.10259 0.848424L7.1798 0.820091L7.30022 0.770508H7.59843C7.86476 0.798133 8.09922 0.957508 8.22176 1.19551L9.79355 4.36176C9.90689 4.59338 10.1272 4.75417 10.3815 4.79313L13.9019 5.30384C14.1994 5.34634 14.448 5.55176 14.5465 5.83509C14.6393 6.11913 14.5592 6.4308 14.3411 6.63551L11.6919 9.14301Z" fill="currentColor"/>
</svg>
