<svg width="16" height="16" viewBox="0 0 16 16" fill="none" xmlns="http://www.w3.org/2000/svg">
<path fill-rule="evenodd" clip-rule="evenodd" d="M8 15.5C3.86 15.5 0.5 12.1475 0.5 8C0.5 3.86 3.86 0.5 8 0.5C12.1475 0.5 15.5 3.86 15.5 8C15.5 12.1475 12.1475 15.5 8 15.5ZM10.3923 10.7823C10.4823 10.8348 10.5798 10.8648 10.6848 10.8648C10.8723 10.8648 11.0598 10.7673 11.1648 10.5873C11.3223 10.3248 11.2398 9.97976 10.9698 9.81476L8.2998 8.22477V4.75977C8.2998 4.44477 8.0448 4.19727 7.7373 4.19727C7.4298 4.19727 7.1748 4.44477 7.1748 4.75977V8.54727C7.1748 8.74227 7.2798 8.92227 7.4523 9.02727L10.3923 10.7823Z" fill="#00B586"/>
</svg>
