<svg width="34" height="34" viewBox="0 0 34 34" fill="none" xmlns="http://www.w3.org/2000/svg">
<rect width="34" height="34" rx="8" fill="#00B586" fill-opacity="0.1"/>
<path d="M24.875 12.3295C24.2953 12.5754 23.6733 12.7422 23.0198 12.8167C23.6871 12.4341 24.1979 11.8272 24.44 11.1063C23.814 11.4606 23.1231 11.7179 22.3869 11.8574C21.7974 11.2552 20.9589 10.8801 20.0288 10.8801C18.2445 10.8801 16.7977 12.2654 16.7977 13.973C16.7977 14.2152 16.8262 14.4517 16.8814 14.6779C14.1965 14.5488 11.8158 13.3171 10.2224 11.4455C9.94382 11.9017 9.78537 12.4331 9.78537 13.0005C9.78537 14.0739 10.3562 15.0209 11.2223 15.575C10.6928 15.5581 10.1948 15.4186 9.75881 15.1868V15.2254C9.75881 16.7238 10.8729 17.9743 12.3502 18.2589C12.0795 18.3287 11.7941 18.3673 11.4989 18.3673C11.2902 18.3673 11.0885 18.3475 10.8906 18.3098C11.302 19.5396 12.4949 20.4339 13.9082 20.4585C12.8029 21.2878 11.4093 21.7806 9.89562 21.7806C9.63482 21.7806 9.37793 21.7655 9.125 21.7382C10.555 22.6175 12.2528 23.1301 14.0775 23.1301C20.021 23.1301 23.2698 18.4163 23.2698 14.3283L23.259 13.9278C23.8938 13.4943 24.4429 12.9496 24.875 12.3295Z" fill="white"/>
</svg>
