<svg width="34" height="34" viewBox="0 0 34 34" fill="none" xmlns="http://www.w3.org/2000/svg">
<rect width="34" height="34" rx="8" fill="#00B586" fill-opacity="0.1"/>
<path fill-rule="evenodd" clip-rule="evenodd" d="M24.0427 11.0854C24.8137 11.2931 25.4216 11.9009 25.6291 12.672C26.0148 14.0804 25.9999 17.0162 25.9999 17.0162C25.9999 17.0162 25.9999 19.9371 25.6293 21.3456C25.4216 22.1166 24.8138 22.7246 24.0427 22.9321C22.6341 23.3029 17 23.3029 17 23.3029C17 23.3029 11.3805 23.3029 9.95721 22.9174C9.18611 22.7097 8.57829 22.1018 8.37065 21.3308C8 19.9371 8 17.0014 8 17.0014C8 17.0014 8 14.0804 8.37065 12.672C8.57815 11.901 9.20094 11.2782 9.95707 11.0707C11.3656 10.7 16.9998 10.7 16.9998 10.7C16.9998 10.7 22.6341 10.7 24.0427 11.0854ZM19.8912 17.0014L15.2059 19.6999V14.3029L19.8912 17.0014Z" fill="white"/>
</svg>
