<svg width="598" height="242" viewBox="0 0 598 242" fill="none" xmlns="http://www.w3.org/2000/svg">
<path d="M1 241C9.14695 193.93 30.0783 148.419 48.5491 109.895C56.8717 92.5369 65.5784 75.4783 74.2487 58.5406C77.721 51.7573 78.4107 50.5331 81.949 44.7957C83.2746 42.6462 85.3717 35.4247 85.8953 38.3009C88.2106 51.017 85.864 71.3698 85.8953 84.2178C85.9595 110.477 85.8302 137.202 88.4942 163.213C91.4533 192.106 122.538 134.513 127.477 126.812C136.38 112.929 144.851 97.2581 154.428 84.5199C167.053 67.7267 163.806 116.25 164.053 125.15C164.165 129.209 163.944 151.119 167.614 153.999C172.383 157.741 188.425 121.118 190.234 117.447C208.242 80.8996 223.308 28.0558 248.178 1.44654C252.213 -2.87057 253.639 25.4741 253.953 28.03C256.784 51 259.178 74.4672 264.156 96.6033C265.951 104.581 267.564 108.181 272.915 103.702C288.518 90.6443 301.444 69.7995 316.711 55.5198C318.028 54.2879 333.811 37.4208 336.731 43.4364C342.74 55.8116 339.276 91.0415 339.715 105.515C339.87 110.623 338.383 138.741 341.929 142.822C346.273 147.821 366.751 106.27 368.88 102.645C371.154 98.773 403.009 42.9852 408.825 57.1812C415.276 72.9276 409.37 106.42 418.546 120.166C421.817 125.065 432.32 112.114 433.562 110.801C454.853 88.2968 474.982 63.4388 496.8 42.077C506.666 32.4179 517.275 21.7654 528.756 17.457C537.947 14.0084 541.62 28.322 545.408 38.9051C558.509 75.5078 569.486 99.8032 597 102.343" stroke="#00B586" stroke-width="2" stroke-linecap="round" stroke-linejoin="round"/>
</svg>
